# Blender v2.92.0 OBJ File: 'test_uv.blend'
# www.blender.org
mtllib test_uv.mtl
o Cube
v 0.963087 0.989592 -1.045548
v 1.034881 1.010300 0.953056
v -1.035624 0.989592 -0.973751
v -0.963830 1.010300 1.024853
v 0.963830 -1.010300 -1.024853
v 1.035624 -0.989592 0.973751
v -1.034881 -1.010300 -0.953056
v -0.963087 -0.989592 1.045548
vt 0.749957 0.250043
vt 0.999913 0.500000
vt 0.749957 0.500000
vt 0.000087 0.500000
vt 0.250043 0.250043
vt 0.250043 0.500000
vt 0.000087 0.250043
vt 0.250043 0.000087
vt 0.500000 0.500000
vt 0.500000 0.250043
vt 0.000087 0.749957
vt 0.250043 0.749957
vt 0.999913 0.250043
vt 0.000087 0.000087
vn -0.0359 -0.0104 -0.9993
vn -0.9994 -0.0000 0.0359
vn 0.0004 -0.9999 0.0103
vn 0.0359 0.0104 0.9993
vn -0.0004 0.9999 -0.0103
vn 0.9994 0.0000 -0.0359
usemtl Material
s off
f 5/1/1 3/2/1 1/3/1
f 3/4/2 8/5/2 4/6/2
f 7/7/3 6/8/3 8/5/3
f 2/9/4 8/5/4 6/10/4
f 1/11/5 4/6/5 2/12/5
f 5/1/6 2/9/6 6/10/6
f 5/1/1 7/13/1 3/2/1
f 3/4/2 7/7/2 8/5/2
f 7/7/3 5/14/3 6/8/3
f 2/9/4 4/6/4 8/5/4
f 1/11/5 3/4/5 4/6/5
f 5/1/6 1/3/6 2/9/6
