<?xml version="1.0" encoding="UTF-8" standalone="no"?>
<!-- Created with Inkscape (http://www.inkscape.org/) -->

<svg
   xmlns:dc="http://purl.org/dc/elements/1.1/"
   xmlns:cc="http://creativecommons.org/ns#"
   xmlns:rdf="http://www.w3.org/1999/02/22-rdf-syntax-ns#"
   xmlns:svg="http://www.w3.org/2000/svg"
   xmlns="http://www.w3.org/2000/svg"
   xmlns:sodipodi="http://sodipodi.sourceforge.net/DTD/sodipodi-0.dtd"
   xmlns:inkscape="http://www.inkscape.org/namespaces/inkscape"
   width="855"
   height="900"
   viewBox="0 0 226.21901 238.12501"
   version="1.1"
   id="svg8"
   inkscape:version="0.92.5 (2060ec1f9f, 2020-04-08)"
   sodipodi:docname="sample.svg">
  <defs
     id="defs2" />
  <sodipodi:namedview
     id="base"
     pagecolor="#ffffff"
     bordercolor="#666666"
     borderopacity="1.0"
     inkscape:pageopacity="0.0"
     inkscape:pageshadow="2"
     inkscape:zoom="6.8348312"
     inkscape:cx="68.454757"
     inkscape:cy="24.892639"
     inkscape:document-units="mm"
     inkscape:current-layer="layer1"
     showgrid="true"
     units="px"
     showguides="true"
     inkscape:guide-bbox="true"
     inkscape:window-width="1848"
     inkscape:window-height="1016"
     inkscape:window-x="72"
     inkscape:window-y="27"
     inkscape:window-maximized="1">
    <inkscape:grid
       type="xygrid"
       id="grid815"
       empspacing="15" />
    <sodipodi:guide
       position="1.3229182,3.1750001"
       orientation="0,1"
       id="guide817"
       inkscape:locked="false" />
    <sodipodi:guide
       position="1.0583345,2.1166668"
       orientation="0,1"
       id="guide819"
       inkscape:locked="false" />
    <sodipodi:guide
       position="0.26458364,1.0583334"
       orientation="0,1"
       id="guide821"
       inkscape:locked="false" />
    <sodipodi:guide
       position="1.8520855,4.2333335"
       orientation="0,1"
       id="guide823"
       inkscape:locked="false" />
    <sodipodi:guide
       position="1.0583345,3.7041668"
       orientation="1,0"
       id="guide825"
       inkscape:locked="false" />
    <sodipodi:guide
       position="2.1166691,3.4395835"
       orientation="1,0"
       id="guide827"
       inkscape:locked="false" />
    <sodipodi:guide
       position="3.1750036,3.1750001"
       orientation="1,0"
       id="guide829"
       inkscape:locked="false" />
    <sodipodi:guide
       position="4.2333382,3.7041668"
       orientation="1,0"
       id="guide831"
       inkscape:locked="false" />
  </sodipodi:namedview>
  <metadata
     id="metadata5">
    <rdf:RDF>
      <cc:Work
         rdf:about="">
        <dc:format>image/svg+xml</dc:format>
        <dc:type
           rdf:resource="http://purl.org/dc/dcmitype/StillImage" />
        <dc:title></dc:title>
      </cc:Work>
    </rdf:RDF>
  </metadata>
  <g
     inkscape:label="Layer 1"
     inkscape:groupmode="layer"
     id="layer1"
     transform="translate(0,-58.874983)">
    <path
       style="fill:none;stroke:#000000;stroke-width:0.25000029;stroke-linecap:square;stroke-linejoin:miter;stroke-opacity:1;stroke-miterlimit:4;stroke-dasharray:none;paint-order:normal"
       d="m 0,293.82512 1.0583345,-1.05833 2.1166692,2.11667 1.0583345,-1.05834 -1.0583345,-1.05833 -2.1166692,2.11667 L 0,293.82512"
       id="path833"
       inkscape:connector-curvature="0" />
    <path
       style="fill:none;stroke:#000000;stroke-width:0.2500003;stroke-linecap:square;stroke-linejoin:miter;stroke-miterlimit:4;stroke-dasharray:none;stroke-opacity:1;paint-order:normal"
       d="m -2.4e-7,295.94178 1.05833454,-1.05833 2.1166693,2.11667 1.0583343,-1.05834 -1.0583343,-1.05833 -2.1166693,2.11667 L -2.4e-7,295.94178"
       id="path833-1"
       inkscape:connector-curvature="0" />
    <path
       style="fill:none;stroke:#000000;stroke-width:0.2500003;stroke-linecap:square;stroke-linejoin:miter;stroke-miterlimit:4;stroke-dasharray:none;stroke-opacity:1;paint-order:normal"
       d="m 3.9627816,293.82512 1.0583344,-1.05833 2.1166691,2.11667 1.0583346,-1.05834 -1.0583346,-1.05833 -2.1166691,2.11667 -1.0583344,-1.05834"
       id="path833-7"
       inkscape:connector-curvature="0" />
    <path
       style="fill:none;stroke:#000000;stroke-width:0.2500003;stroke-linecap:square;stroke-linejoin:miter;stroke-miterlimit:4;stroke-dasharray:none;stroke-opacity:1;paint-order:normal"
       d="m 3.9627813,295.94178 1.0583346,-1.05833 2.1166692,2.11667 1.0583343,-1.05834 -1.0583343,-1.05833 -2.1166692,2.11667 -1.0583346,-1.05834"
       id="path833-1-7"
       inkscape:connector-curvature="0" />
    <path
       style="fill:none;stroke:#000000;stroke-width:0.2500003;stroke-linecap:square;stroke-linejoin:miter;stroke-miterlimit:4;stroke-dasharray:none;stroke-opacity:1;paint-order:normal"
       d="m 7.8767861,293.86035 1.0583344,-1.05833 2.1166685,2.11667 1.058334,-1.05834 -1.058334,-1.05833 -2.1166685,2.11667 -1.0583344,-1.05834"
       id="path833-11"
       inkscape:connector-curvature="0" />
    <path
       style="fill:none;stroke:#000000;stroke-width:0.2500003;stroke-linecap:square;stroke-linejoin:miter;stroke-miterlimit:4;stroke-dasharray:none;stroke-opacity:1;paint-order:normal"
       d="m 7.8767858,295.97701 1.0583346,-1.05833 2.1166686,2.11667 1.058334,-1.05834 -1.058334,-1.05833 -2.1166686,2.11667 -1.0583346,-1.05834"
       id="path833-1-5"
       inkscape:connector-curvature="0" />
    <path
       style="fill:none;stroke:#000000;stroke-width:0.2500003;stroke-linecap:square;stroke-linejoin:miter;stroke-miterlimit:4;stroke-dasharray:none;stroke-opacity:1;paint-order:normal"
       d="m 11.839566,293.86035 1.058334,-1.05833 2.116669,2.11667 1.058334,-1.05834 -1.058334,-1.05833 -2.116669,2.11667 -1.058334,-1.05834"
       id="path833-7-9"
       inkscape:connector-curvature="0" />
    <path
       style="fill:none;stroke:#000000;stroke-width:0.2500003;stroke-linecap:square;stroke-linejoin:miter;stroke-miterlimit:4;stroke-dasharray:none;stroke-opacity:1;paint-order:normal"
       d="m 11.839566,295.97701 1.058334,-1.05833 2.116669,2.11667 1.058334,-1.05834 -1.058334,-1.05833 -2.116669,2.11667 -1.058334,-1.05834"
       id="path833-1-7-7"
       inkscape:connector-curvature="0" />
    <path
       style="fill:none;stroke:#000000;stroke-width:0.2500003;stroke-linecap:square;stroke-linejoin:miter;stroke-miterlimit:4;stroke-dasharray:none;stroke-opacity:1;paint-order:normal"
       d="m 15.772795,293.86035 1.058334,-1.05833 2.116669,2.11667 1.058334,-1.05834 -1.058334,-1.05833 -2.116669,2.11667 -1.058334,-1.05834"
       id="path833-7-9-7"
       inkscape:connector-curvature="0" />
    <path
       style="fill:none;stroke:#000000;stroke-width:0.2500003;stroke-linecap:square;stroke-linejoin:miter;stroke-miterlimit:4;stroke-dasharray:none;stroke-opacity:1;paint-order:normal"
       d="m 15.772795,295.97701 1.058334,-1.05833 2.116669,2.11667 1.058334,-1.05834 -1.058334,-1.05833 -2.116669,2.11667 -1.058334,-1.05834"
       id="path833-1-7-7-6"
       inkscape:connector-curvature="0" />
    <path
       style="fill:none;stroke:#000000;stroke-width:0.2500003;stroke-linecap:square;stroke-linejoin:miter;stroke-miterlimit:4;stroke-dasharray:none;stroke-opacity:1;paint-order:normal"
       d="m -0.03522334,289.95611 1.05833564,-1.05833 2.1166692,2.11667 1.0583346,-1.05834 -1.0583346,-1.05833 -2.1166692,2.11667 -1.05833564,-1.05834"
       id="path833-73"
       inkscape:connector-curvature="0" />
    <path
       style="fill:none;stroke:#000000;stroke-width:0.2500003;stroke-linecap:square;stroke-linejoin:miter;stroke-miterlimit:4;stroke-dasharray:none;stroke-opacity:1;paint-order:normal"
       d="m -0.03522334,292.07277 1.05833564,-1.05833 2.1166692,2.11667 1.0583343,-1.05834 -1.0583343,-1.05833 -2.1166692,2.11667 -1.05833564,-1.05834"
       id="path833-1-6"
       inkscape:connector-curvature="0" />
    <path
       style="fill:none;stroke:#000000;stroke-width:0.2500003;stroke-linecap:square;stroke-linejoin:miter;stroke-miterlimit:4;stroke-dasharray:none;stroke-opacity:1;paint-order:normal"
       d="m 3.9275594,289.95611 1.0583346,-1.05833 2.1166691,2.11667 1.0583345,-1.05834 -1.0583345,-1.05833 -2.1166691,2.11667 -1.0583346,-1.05834"
       id="path833-7-5"
       inkscape:connector-curvature="0" />
    <path
       style="fill:none;stroke:#000000;stroke-width:0.2500003;stroke-linecap:square;stroke-linejoin:miter;stroke-miterlimit:4;stroke-dasharray:none;stroke-opacity:1;paint-order:normal"
       d="m 3.9275592,292.07277 1.0583345,-1.05833 2.1166694,2.11667 1.0583343,-1.05834 -1.0583343,-1.05833 -2.1166694,2.11667 -1.0583345,-1.05834"
       id="path833-1-7-6"
       inkscape:connector-curvature="0" />
    <path
       style="fill:none;stroke:#000000;stroke-width:0.2500003;stroke-linecap:square;stroke-linejoin:miter;stroke-miterlimit:4;stroke-dasharray:none;stroke-opacity:1;paint-order:normal"
       d="m 7.841564,289.99134 1.0583345,-1.05833 2.1166675,2.11667 1.058334,-1.05834 -1.058334,-1.05833 -2.1166675,2.11667 -1.0583345,-1.05834"
       id="path833-11-3"
       inkscape:connector-curvature="0" />
    <path
       style="fill:none;stroke:#000000;stroke-width:0.2500003;stroke-linecap:square;stroke-linejoin:miter;stroke-miterlimit:4;stroke-dasharray:none;stroke-opacity:1;paint-order:normal"
       d="m 7.8415637,292.108 1.0583346,-1.05833 2.1166677,2.11667 1.058334,-1.05834 -1.058334,-1.05833 -2.1166677,2.11667 -1.0583346,-1.05834"
       id="path833-1-5-9"
       inkscape:connector-curvature="0" />
    <path
       style="fill:none;stroke:#000000;stroke-width:0.2500003;stroke-linecap:square;stroke-linejoin:miter;stroke-miterlimit:4;stroke-dasharray:none;stroke-opacity:1;paint-order:normal"
       d="m 11.804343,289.99134 1.058333,-1.05833 2.116668,2.11667 1.058334,-1.05834 -1.058334,-1.05833 -2.116668,2.11667 -1.058333,-1.05834"
       id="path833-7-9-4"
       inkscape:connector-curvature="0" />
    <path
       style="fill:none;stroke:#000000;stroke-width:0.2500003;stroke-linecap:square;stroke-linejoin:miter;stroke-miterlimit:4;stroke-dasharray:none;stroke-opacity:1;paint-order:normal"
       d="m 11.804343,292.108 1.058333,-1.05833 2.116668,2.11667 1.058334,-1.05834 -1.058334,-1.05833 -2.116668,2.11667 -1.058333,-1.05834"
       id="path833-1-7-7-8"
       inkscape:connector-curvature="0" />
    <path
       style="fill:none;stroke:#000000;stroke-width:0.2500003;stroke-linecap:square;stroke-linejoin:miter;stroke-miterlimit:4;stroke-dasharray:none;stroke-opacity:1;paint-order:normal"
       d="m 15.73757,289.99134 1.058333,-1.05833 2.116668,2.11667 1.058333,-1.05834 -1.058333,-1.05833 -2.116668,2.11667 -1.058333,-1.05834"
       id="path833-7-9-7-1"
       inkscape:connector-curvature="0" />
    <path
       style="fill:none;stroke:#000000;stroke-width:0.2500003;stroke-linecap:square;stroke-linejoin:miter;stroke-miterlimit:4;stroke-dasharray:none;stroke-opacity:1;paint-order:normal"
       d="m 15.73757,292.108 1.058333,-1.05833 2.116668,2.11667 1.058333,-1.05834 -1.058333,-1.05833 -2.116668,2.11667 -1.058333,-1.05834"
       id="path833-1-7-7-6-2"
       inkscape:connector-curvature="0" />
    <path
       style="fill:none;stroke:#000000;stroke-width:0.2500003;stroke-linecap:square;stroke-linejoin:miter;stroke-miterlimit:4;stroke-dasharray:none;stroke-opacity:1;paint-order:normal"
       d="m -0.03500038,285.88761 1.05833558,-1.05833 2.1166694,2.11667 1.0583345,-1.05834 -1.0583345,-1.05833 -2.1166694,2.11667 -1.05833558,-1.05834"
       id="path833-9"
       inkscape:connector-curvature="0" />
    <path
       style="fill:none;stroke:#000000;stroke-width:0.2500003;stroke-linecap:square;stroke-linejoin:miter;stroke-miterlimit:4;stroke-dasharray:none;stroke-opacity:1;paint-order:normal"
       d="m -0.03500038,288.00427 1.05833558,-1.05833 2.1166694,2.11667 1.0583342,-1.05834 -1.0583342,-1.05833 -2.1166694,2.11667 -1.05833558,-1.05834"
       id="path833-1-3"
       inkscape:connector-curvature="0" />
    <path
       style="fill:none;stroke:#000000;stroke-width:0.2500003;stroke-linecap:square;stroke-linejoin:miter;stroke-miterlimit:4;stroke-dasharray:none;stroke-opacity:1;paint-order:normal"
       d="m 3.9277825,285.88761 1.0583343,-1.05833 2.1166691,2.11667 1.0583346,-1.05834 -1.0583346,-1.05833 -2.1166691,2.11667 -1.0583343,-1.05834"
       id="path833-7-90"
       inkscape:connector-curvature="0" />
    <path
       style="fill:none;stroke:#000000;stroke-width:0.2500003;stroke-linecap:square;stroke-linejoin:miter;stroke-miterlimit:4;stroke-dasharray:none;stroke-opacity:1;paint-order:normal"
       d="m 3.9277822,288.00427 1.0583346,-1.05833 2.1166691,2.11667 1.0583343,-1.05834 -1.0583343,-1.05833 -2.1166691,2.11667 -1.0583346,-1.05834"
       id="path833-1-7-8"
       inkscape:connector-curvature="0" />
    <path
       style="fill:none;stroke:#000000;stroke-width:0.2500003;stroke-linecap:square;stroke-linejoin:miter;stroke-miterlimit:4;stroke-dasharray:none;stroke-opacity:1;paint-order:normal"
       d="m 7.8417871,285.92284 1.0583343,-1.05833 2.1166676,2.11667 1.058334,-1.05834 -1.058334,-1.05833 -2.1166676,2.11667 -1.0583343,-1.05834"
       id="path833-11-8"
       inkscape:connector-curvature="0" />
    <path
       style="fill:none;stroke:#000000;stroke-width:0.2500003;stroke-linecap:square;stroke-linejoin:miter;stroke-miterlimit:4;stroke-dasharray:none;stroke-opacity:1;paint-order:normal"
       d="m 7.8417868,288.0395 1.0583346,-1.05833 2.1166676,2.11667 1.058334,-1.05834 -1.058334,-1.05833 -2.1166676,2.11667 -1.0583346,-1.05834"
       id="path833-1-5-5"
       inkscape:connector-curvature="0" />
    <path
       style="fill:none;stroke:#000000;stroke-width:0.2500003;stroke-linecap:square;stroke-linejoin:miter;stroke-miterlimit:4;stroke-dasharray:none;stroke-opacity:1;paint-order:normal"
       d="m 11.804566,285.92284 1.058334,-1.05833 2.116668,2.11667 1.058334,-1.05834 -1.058334,-1.05833 -2.116668,2.11667 -1.058334,-1.05834"
       id="path833-7-9-0"
       inkscape:connector-curvature="0" />
    <path
       style="fill:none;stroke:#000000;stroke-width:0.2500003;stroke-linecap:square;stroke-linejoin:miter;stroke-miterlimit:4;stroke-dasharray:none;stroke-opacity:1;paint-order:normal"
       d="m 11.804566,288.0395 1.058334,-1.05833 2.116668,2.11667 1.058334,-1.05834 -1.058334,-1.05833 -2.116668,2.11667 -1.058334,-1.05834"
       id="path833-1-7-7-9"
       inkscape:connector-curvature="0" />
    <path
       style="fill:none;stroke:#000000;stroke-width:0.2500003;stroke-linecap:square;stroke-linejoin:miter;stroke-miterlimit:4;stroke-dasharray:none;stroke-opacity:1;paint-order:normal"
       d="m 15.737794,285.92284 1.058333,-1.05833 2.116668,2.11667 1.058334,-1.05834 -1.058334,-1.05833 -2.116668,2.11667 -1.058333,-1.05834"
       id="path833-7-9-7-6"
       inkscape:connector-curvature="0" />
    <path
       style="fill:none;stroke:#000000;stroke-width:0.2500003;stroke-linecap:square;stroke-linejoin:miter;stroke-miterlimit:4;stroke-dasharray:none;stroke-opacity:1;paint-order:normal"
       d="m 15.737794,288.0395 1.058333,-1.05833 2.116668,2.11667 1.058334,-1.05834 -1.058334,-1.05833 -2.116668,2.11667 -1.058333,-1.05834"
       id="path833-1-7-7-6-3"
       inkscape:connector-curvature="0" />
    <path
       style="fill:none;stroke:#000000;stroke-width:0.2500003;stroke-linecap:square;stroke-linejoin:miter;stroke-miterlimit:4;stroke-dasharray:none;stroke-opacity:1;paint-order:normal"
       d="m -0.07022338,282.0186 1.05833656,-1.05833 2.11666932,2.11667 1.0583344,-1.05834 -1.0583344,-1.05833 -2.11666932,2.11667 -1.05833656,-1.05834"
       id="path833-73-8"
       inkscape:connector-curvature="0" />
    <path
       style="fill:none;stroke:#000000;stroke-width:0.2500003;stroke-linecap:square;stroke-linejoin:miter;stroke-miterlimit:4;stroke-dasharray:none;stroke-opacity:1;paint-order:normal"
       d="m -0.07022338,284.13526 1.05833656,-1.05833 2.11666932,2.11667 1.0583342,-1.05834 -1.0583342,-1.05833 -2.11666932,2.11667 -1.05833656,-1.05834"
       id="path833-1-6-5"
       inkscape:connector-curvature="0" />
    <path
       style="fill:none;stroke:#000000;stroke-width:0.2500003;stroke-linecap:square;stroke-linejoin:miter;stroke-miterlimit:4;stroke-dasharray:none;stroke-opacity:1;paint-order:normal"
       d="m 3.8925603,282.0186 1.0583346,-1.05833 2.1166691,2.11667 1.0583346,-1.05834 -1.0583346,-1.05833 -2.1166691,2.11667 -1.0583346,-1.05834"
       id="path833-7-5-6"
       inkscape:connector-curvature="0" />
    <path
       style="fill:none;stroke:#000000;stroke-width:0.2500003;stroke-linecap:square;stroke-linejoin:miter;stroke-miterlimit:4;stroke-dasharray:none;stroke-opacity:1;paint-order:normal"
       d="M 3.89256,284.13526 4.9508946,283.07693 7.067564,285.1936 8.1258983,284.13526 7.067564,283.07693 4.9508946,285.1936 3.89256,284.13526"
       id="path833-1-7-6-1"
       inkscape:connector-curvature="0" />
    <path
       style="fill:none;stroke:#000000;stroke-width:0.2500003;stroke-linecap:square;stroke-linejoin:miter;stroke-miterlimit:4;stroke-dasharray:none;stroke-opacity:1;paint-order:normal"
       d="m 7.8065649,282.05383 1.0583346,-1.05833 2.1166665,2.11667 1.058334,-1.05834 -1.058334,-1.05833 -2.1166665,2.11667 -1.0583346,-1.05834"
       id="path833-11-3-1"
       inkscape:connector-curvature="0" />
    <path
       style="fill:none;stroke:#000000;stroke-width:0.2500003;stroke-linecap:square;stroke-linejoin:miter;stroke-miterlimit:4;stroke-dasharray:none;stroke-opacity:1;paint-order:normal"
       d="m 7.8065647,284.17049 1.0583345,-1.05833 2.1166668,2.11667 1.058334,-1.05834 -1.058334,-1.05833 -2.1166668,2.11667 -1.0583345,-1.05834"
       id="path833-1-5-9-5"
       inkscape:connector-curvature="0" />
    <path
       style="fill:none;stroke:#000000;stroke-width:0.2500003;stroke-linecap:square;stroke-linejoin:miter;stroke-miterlimit:4;stroke-dasharray:none;stroke-opacity:1;paint-order:normal"
       d="m 11.769343,282.05383 1.058333,-1.05833 2.116667,2.11667 1.058334,-1.05834 -1.058334,-1.05833 -2.116667,2.11667 -1.058333,-1.05834"
       id="path833-7-9-4-9"
       inkscape:connector-curvature="0" />
    <path
       style="fill:none;stroke:#000000;stroke-width:0.2500003;stroke-linecap:square;stroke-linejoin:miter;stroke-miterlimit:4;stroke-dasharray:none;stroke-opacity:1;paint-order:normal"
       d="m 11.769343,284.17049 1.058333,-1.05833 2.116667,2.11667 1.058334,-1.05834 -1.058334,-1.05833 -2.116667,2.11667 -1.058333,-1.05834"
       id="path833-1-7-7-8-8"
       inkscape:connector-curvature="0" />
    <path
       style="fill:none;stroke:#000000;stroke-width:0.2500003;stroke-linecap:square;stroke-linejoin:miter;stroke-miterlimit:4;stroke-dasharray:none;stroke-opacity:1;paint-order:normal"
       d="m 15.702569,282.05383 1.058332,-1.05833 2.116667,2.11667 1.058333,-1.05834 -1.058333,-1.05833 -2.116667,2.11667 -1.058332,-1.05834"
       id="path833-7-9-7-1-4"
       inkscape:connector-curvature="0" />
    <path
       style="fill:none;stroke:#000000;stroke-width:0.2500003;stroke-linecap:square;stroke-linejoin:miter;stroke-miterlimit:4;stroke-dasharray:none;stroke-opacity:1;paint-order:normal"
       d="m 15.702569,284.17049 1.058332,-1.05833 2.116667,2.11667 1.058333,-1.05834 -1.058333,-1.05833 -2.116667,2.11667 -1.058332,-1.05834"
       id="path833-1-7-7-6-2-8"
       inkscape:connector-curvature="0" />
    <path
       style="fill:none;stroke:#000000;stroke-width:0.2500003;stroke-linecap:square;stroke-linejoin:miter;stroke-miterlimit:4;stroke-dasharray:none;stroke-opacity:1;paint-order:normal"
       d="m -0.11322343,278.0498 1.05833761,-1.05833 2.11667022,2.11667 1.0583345,-1.05834 -1.0583345,-1.05833 -2.11667022,2.11667 -1.05833761,-1.05834"
       id="path833-73-8-1"
       inkscape:connector-curvature="0" />
    <path
       style="fill:none;stroke:#000000;stroke-width:0.2500003;stroke-linecap:square;stroke-linejoin:miter;stroke-miterlimit:4;stroke-dasharray:none;stroke-opacity:1;paint-order:normal"
       d="m -0.11322343,280.16646 1.05833761,-1.05833 2.11667022,2.11667 1.0583345,-1.05834 -1.0583345,-1.05833 -2.11667022,2.11667 -1.05833761,-1.05834"
       id="path833-1-6-5-0"
       inkscape:connector-curvature="0" />
    <path
       style="fill:none;stroke:#000000;stroke-width:0.2500003;stroke-linecap:square;stroke-linejoin:miter;stroke-miterlimit:4;stroke-dasharray:none;stroke-opacity:1;paint-order:normal"
       d="m 3.8495626,278.0498 1.0583346,-1.05833 2.1166702,2.11667 1.0583356,-1.05834 -1.0583356,-1.05833 -2.1166702,2.11667 -1.0583346,-1.05834"
       id="path833-7-5-6-3"
       inkscape:connector-curvature="0" />
    <path
       style="fill:none;stroke:#000000;stroke-width:0.2500003;stroke-linecap:square;stroke-linejoin:miter;stroke-miterlimit:4;stroke-dasharray:none;stroke-opacity:1;paint-order:normal"
       d="m 3.8495626,280.16646 1.0583346,-1.05833 2.1166702,2.11667 1.0583356,-1.05834 -1.0583356,-1.05833 -2.1166702,2.11667 -1.0583346,-1.05834"
       id="path833-1-7-6-1-0"
       inkscape:connector-curvature="0" />
    <path
       style="fill:none;stroke:#000000;stroke-width:0.2500003;stroke-linecap:square;stroke-linejoin:miter;stroke-miterlimit:4;stroke-dasharray:none;stroke-opacity:1;paint-order:normal"
       d="m 7.763569,278.08503 1.0583356,-1.05833 2.1166664,2.11667 1.058334,-1.05834 -1.058334,-1.05833 -2.1166664,2.11667 -1.0583356,-1.05834"
       id="path833-11-3-1-4"
       inkscape:connector-curvature="0" />
    <path
       style="fill:none;stroke:#000000;stroke-width:0.2500003;stroke-linecap:square;stroke-linejoin:miter;stroke-miterlimit:4;stroke-dasharray:none;stroke-opacity:1;paint-order:normal"
       d="m 7.763569,280.20169 1.0583356,-1.05833 2.1166664,2.11667 1.058334,-1.05834 -1.058334,-1.05833 -2.1166664,2.11667 -1.0583356,-1.05834"
       id="path833-1-5-9-5-4"
       inkscape:connector-curvature="0" />
    <path
       style="fill:none;stroke:#000000;stroke-width:0.2500003;stroke-linecap:square;stroke-linejoin:miter;stroke-miterlimit:4;stroke-dasharray:none;stroke-opacity:1;paint-order:normal"
       d="m 11.726348,278.08503 1.058333,-1.05833 2.116667,2.11667 1.058334,-1.05834 -1.058334,-1.05833 -2.116667,2.11667 -1.058333,-1.05834"
       id="path833-7-9-4-9-4"
       inkscape:connector-curvature="0" />
    <path
       style="fill:none;stroke:#000000;stroke-width:0.2500003;stroke-linecap:square;stroke-linejoin:miter;stroke-miterlimit:4;stroke-dasharray:none;stroke-opacity:1;paint-order:normal"
       d="m 11.726348,280.20169 1.058333,-1.05833 2.116667,2.11667 1.058334,-1.05834 -1.058334,-1.05833 -2.116667,2.11667 -1.058333,-1.05834"
       id="path833-1-7-7-8-8-4"
       inkscape:connector-curvature="0" />
    <path
       style="fill:none;stroke:#000000;stroke-width:0.2500003;stroke-linecap:square;stroke-linejoin:miter;stroke-miterlimit:4;stroke-dasharray:none;stroke-opacity:1;paint-order:normal"
       d="m 15.659574,278.08503 1.058332,-1.05833 2.116667,2.11667 1.058333,-1.05834 -1.058333,-1.05833 -2.116667,2.11667 -1.058332,-1.05834"
       id="path833-7-9-7-1-4-7"
       inkscape:connector-curvature="0" />
    <path
       style="fill:none;stroke:#000000;stroke-width:0.2500003;stroke-linecap:square;stroke-linejoin:miter;stroke-miterlimit:4;stroke-dasharray:none;stroke-opacity:1;paint-order:normal"
       d="m 15.659574,280.20169 1.058332,-1.05833 2.116667,2.11667 1.058333,-1.05834 -1.058333,-1.05833 -2.116667,2.11667 -1.058332,-1.05834"
       id="path833-1-7-7-6-2-8-6"
       inkscape:connector-curvature="0" />
  </g>
</svg>
